<?xml version="1.0" encoding="UTF-8" standalone="no"?>
<!-- Created with Inkscape (http://www.inkscape.org/) -->

<svg
   width="210mm"
   height="297mm"
   viewBox="0 0 210 297"
   version="1.1"
   id="svg5"
   inkscape:version="1.1 (c68e22c387, 2021-05-23)"
   sodipodi:docname="markers.svg"
   xmlns:inkscape="http://www.inkscape.org/namespaces/inkscape"
   xmlns:sodipodi="http://sodipodi.sourceforge.net/DTD/sodipodi-0.dtd"
   xmlns="http://www.w3.org/2000/svg"
   xmlns:svg="http://www.w3.org/2000/svg">
  <sodipodi:namedview
     id="namedview7"
     pagecolor="#ffffff"
     bordercolor="#666666"
     borderopacity="1.0"
     inkscape:pageshadow="2"
     inkscape:pageopacity="0.0"
     inkscape:pagecheckerboard="0"
     inkscape:document-units="mm"
     showgrid="false"
     inkscape:snap-bbox="false"
     inkscape:snap-bbox-midpoints="true"
     inkscape:snap-object-midpoints="true"
     inkscape:zoom="1.3416246"
     inkscape:cx="234.41729"
     inkscape:cy="526.97304"
     inkscape:window-width="1920"
     inkscape:window-height="1028"
     inkscape:window-x="-6"
     inkscape:window-y="-6"
     inkscape:window-maximized="1"
     inkscape:current-layer="layer1" />
  <defs
     id="defs2" />
  <g
     inkscape:label="Ebene 1"
     inkscape:groupmode="layer"
     id="layer1">
    <g
       id="g1029"
       transform="translate(26.426296,-15.382469)">
      <circle
         style="fill:none;fill-opacity:0.690196;stroke:#000000;stroke-width:1"
         id="circle1025"
         cx="84.448792"
         cy="103.57827"
         r="6.4093628" />
      <path
         sodipodi:type="star"
         style="fill:none;fill-opacity:0.690196;stroke:#000000;stroke-width:4.21849"
         id="path1027"
         inkscape:flatsided="true"
         sodipodi:sides="4"
         sodipodi:cx="307.83575"
         sodipodi:cy="380.13614"
         sodipodi:r1="23.863323"
         sodipodi:r2="16.873919"
         sodipodi:arg1="-0.78539816"
         sodipodi:arg2="0"
         inkscape:rounded="0"
         inkscape:randomized="0"
         d="m 324.70967,363.26222 0,33.74784 -33.74783,0 0,-33.74784 z"
         transform="matrix(0.23705224,0,0,0.23705224,11.475636,13.466147)"
         inkscape:transform-center-x="1.514897e-06"
         inkscape:transform-center-y="-1.1180906e-06" />
    </g>
    <g
       id="g1815"
       transform="translate(0.98605726,-5.1274893)">
      <path
         sodipodi:type="star"
         style="fill:none;fill-opacity:0.690196;stroke:#000000;stroke-width:3.97987"
         id="path1567"
         inkscape:flatsided="true"
         sodipodi:sides="5"
         sodipodi:cx="240.75288"
         sodipodi:cy="366.71957"
         sodipodi:r1="20.923393"
         sodipodi:r2="16.92738"
         sodipodi:arg1="-1.5707963"
         sodipodi:arg2="-0.9424778"
         inkscape:rounded="0"
         inkscape:randomized="0"
         d="m 240.75288,345.79618 19.89933,14.45771 -7.60086,23.39307 -24.59693,-10e-6 -7.60087,-23.39306 z"
         transform="matrix(0.25126475,0,0,0.25126475,2.9414563,4.605515)"
         inkscape:transform-center-y="-0.50202874" />
      <circle
         style="fill:none;fill-opacity:0.690196;stroke:#000000;stroke-width:1"
         id="circle1799"
         cx="63.43417"
         cy="96.749214"
         r="6.4093628" />
    </g>
    <g
       id="g1811"
       transform="translate(22.482073,20.904383)">
      <path
         sodipodi:type="star"
         style="fill:none;fill-opacity:0.690196;stroke:#000000;stroke-width:2.58202"
         id="path1717"
         inkscape:flatsided="true"
         sodipodi:sides="3"
         sodipodi:cx="243.73434"
         sodipodi:cy="255.66019"
         sodipodi:r1="14.9073"
         sodipodi:r2="7.45365"
         sodipodi:arg1="0.52359878"
         sodipodi:arg2="1.5707963"
         inkscape:rounded="0"
         inkscape:randomized="0"
         d="m 256.64444,263.11384 -25.8202,0 12.9101,-22.36095 z"
         transform="matrix(0.38729365,0,0,0.38729365,-28.324518,-29.542865)"
         inkscape:transform-center-y="-1.4433782"
         inkscape:transform-center-x="1.2172363e-06" />
      <circle
         style="fill:none;fill-opacity:0.690196;stroke:#000000;stroke-width:1"
         id="circle1801"
         cx="66.072243"
         cy="69.472702"
         r="6.4093628" />
    </g>
    <g
       id="g1807">
      <path
         sodipodi:type="star"
         style="fill:none;fill-opacity:0.690196;stroke:#000000;stroke-width:3.93565"
         id="path870"
         inkscape:flatsided="true"
         sodipodi:sides="6"
         sodipodi:cx="144.60081"
         sodipodi:cy="351.06693"
         sodipodi:r1="19.678202"
         sodipodi:r2="17.041822"
         sodipodi:arg1="-0.52359878"
         sodipodi:arg2="0"
         inkscape:rounded="0"
         inkscape:randomized="0"
         d="m 161.64264,341.22782 0,19.67821 -17.04183,9.8391 -17.04182,-9.8391 0,-19.67821 17.04182,-9.8391 z"
         transform="matrix(0.25408826,0,0,0.25408826,5.8745978,3.4779496)" />
      <circle
         style="fill:none;fill-opacity:0.690196;stroke:#000000;stroke-width:1"
         id="circle1803"
         cx="42.615967"
         cy="92.679932"
         r="6.4093628" />
    </g>
    <path
       id="circle998"
       style="fill:none;fill-opacity:0.690196;stroke:#000000"
       d="m 47.830214,152.69581 a 6.4093628,6.4093628 0 0 1 -6.409363,6.40936 6.4093628,6.4093628 0 0 1 -6.409362,-6.40936 6.4093628,6.4093628 0 0 1 6.409362,-6.40936 6.4093628,6.4093628 0 0 1 6.409363,6.40936 z m -1.409363,2.88675 h -10 l 5,-8.66025 z" />
    <path
       id="path1591"
       style="fill:none;fill-opacity:0.690196;stroke:#000000;stroke-width:1"
       inkscape:transform-center-x="1.514897e-06"
       inkscape:transform-center-y="-1.1180906e-06"
       d="m 68.530465,148.68385 v 8 h -8 v -8 z m 2.40936,3.99999 a 6.4093628,6.4093628 0 0 1 -6.40935,6.40937 6.4093628,6.4093628 0 0 1 -6.40937,-6.40937 6.4093628,6.4093628 0 0 1 6.40937,-6.40936 6.4093628,6.4093628 0 0 1 6.40935,6.40936 z" />
    <path
       id="circle969"
       style="fill:none;fill-opacity:0.690196;stroke:#000000"
       d="m 94.297718,149.79901 a 6.4093628,6.4093628 0 0 1 -6.409363,6.40937 6.4093628,6.4093628 0 0 1 -6.409363,-6.40937 6.4093628,6.4093628 0 0 1 6.409363,-6.40936 6.4093628,6.4093628 0 0 1 6.409363,6.40936 z m -6.409364,-5.2573 5,3.63271 -1.909828,5.87786 -6.180342,-1e-5 -1.90983,-5.87785 z" />
    <path
       id="circle922"
       style="fill:none;fill-opacity:0.690196;stroke:#000000"
       d="m 117.26039,153.42096 a 6.4093628,6.4093628 0 0 1 -6.40936,6.40937 6.4093628,6.4093628 0 0 1 -6.40937,-6.40937 6.4093628,6.4093628 0 0 1 6.40937,-6.40936 6.4093628,6.4093628 0 0 1 6.40936,6.40936 z m -2.07924,-2.49999 v 5 l -4.33013,2.5 -4.33012,-2.5 v -5 l 4.33012,-2.5 z" />
  </g>
</svg>
